<svg width="91" height="26" viewBox="0 0 91 26" fill="none" xmlns="http://www.w3.org/2000/svg">
<g clip-path="url(#clip0_2014_230)">
<path d="M34.6497 19.7184V6.23999H37.5414V19.7184H34.6497Z" fill="#3673F5"/>
<path d="M41.4323 19.7184V6.23999H44.4561L52.073 15.2256V6.23999H55.0401V19.7184H52.0161L44.3616 10.6954V19.7184H41.4323Z" fill="#3673F5"/>
<path d="M62.223 19.7184C61.7063 19.7184 61.2338 19.5936 60.8055 19.344C60.3894 19.0944 60.0556 18.7637 59.8036 18.3518C59.5516 17.9275 59.4256 17.4595 59.4256 16.9478V9.01055C59.4256 8.49887 59.5516 8.03711 59.8036 7.62527C60.0556 7.20095 60.3894 6.86399 60.8055 6.61439C61.2338 6.36479 61.7063 6.23999 62.223 6.23999H72.996V9.16031H62.979C62.7773 9.16031 62.6198 9.21023 62.5065 9.31007C62.4054 9.40991 62.3551 9.56591 62.3551 9.77807V16.1803C62.3551 16.38 62.4054 16.536 62.5065 16.6483C62.6198 16.7481 62.7773 16.7981 62.979 16.7981H72.996V19.7184H62.223Z" fill="#3673F5"/>
<path d="M79.9938 19.7184C79.4898 19.7184 79.0234 19.5936 78.5951 19.344C78.1668 19.0944 77.8264 18.7574 77.5744 18.3331C77.3224 17.9088 77.1969 17.447 77.1969 16.9478V9.01055C77.1969 8.49887 77.3224 8.03711 77.5744 7.62527C77.8264 7.20095 78.1668 6.86399 78.5951 6.61439C79.0234 6.36479 79.4898 6.23999 79.9938 6.23999H88.0075C88.5115 6.23999 88.9713 6.36479 89.3874 6.61439C89.8157 6.86399 90.1556 7.20095 90.4076 7.62527C90.6723 8.03711 90.8044 8.49887 90.8044 9.01055V16.9478C90.8044 17.447 90.6723 17.9088 90.4076 18.3331C90.1556 18.7574 89.8157 19.0944 89.3874 19.344C88.9713 19.5936 88.5115 19.7184 88.0075 19.7184H79.9938ZM80.1259 16.7981H87.8373V9.16031H80.1259V16.7981Z" fill="#3673F5"/>
<path d="M0 4.16C0 1.8625 1.88041 0 4.2 0H22.05C24.3696 0 26.25 1.8625 26.25 4.16V21.84C26.25 24.1375 24.3696 26 22.05 26H4.2C1.88041 26 0 24.1375 0 21.84V4.16Z" fill="#3673F5"/>
<path d="M4.98679 17.94L7.63279 8.06H10.4993L7.85329 17.94H4.98679Z" fill="white"/>
<path d="M10.4993 17.94L13.1453 8.06H16.0118L13.3658 17.94H10.4993Z" fill="white"/>
<path d="M16.0118 17.94L18.6578 8.06H21.5243L18.8783 17.94H16.0118Z" fill="white"/>
</g>
<defs>
<clipPath id="clip0_2014_230">
<rect width="91" height="26" fill="white"/>
</clipPath>
</defs>
</svg>
